<svg xmlns="http://www.w3.org/2000/svg" version="1.1" xmlns:xlink="http://www.w3.org/1999/xlink" width="200" height="200"><svg xmlns="http://www.w3.org/2000/svg" version="1.1" xmlns:xlink="http://www.w3.org/1999/xlink" viewBox="0 0 200 200"><rect width="200" height="200" fill="url('#gradient')"></rect><defs><linearGradient id="SvgjsLinearGradient1001" gradientTransform="rotate(45 0.5 0.5)"><stop offset="0%" stop-color="#778ca7"></stop><stop offset="100%" stop-color="#778ca7"></stop></linearGradient></defs><g><g fill="#1d425b" transform="matrix(2.984939271255061,0,0,2.984939271255061,8.48257924597273,122.10570133610776)" stroke="#778ca7" stroke-width="0.2"><path d="M5.39-2.34L5.39-2.34Q6.08-2.34 6.46-2.72Q6.85-3.10 6.84-3.77L6.84-3.77L9.92-3.77Q9.92-2.03 8.68-0.92Q7.43 0.20 5.47 0.20L5.47 0.20Q3.16 0.20 1.84-1.25Q0.51-2.70 0.51-5.25L0.51-5.25L0.51-5.39Q0.51-6.99 1.10-8.22Q1.69-9.44 2.80-10.10Q3.92-10.76 5.44-10.76L5.44-10.76Q7.50-10.76 8.71-9.62Q9.92-8.48 9.92-6.52L9.92-6.52L6.84-6.52Q6.84-7.34 6.44-7.78Q6.04-8.22 5.36-8.22L5.36-8.22Q4.08-8.22 3.87-6.59L3.87-6.59Q3.80-6.07 3.80-5.17L3.80-5.17Q3.80-3.57 4.18-2.96Q4.56-2.34 5.39-2.34ZM10.91-4.82L10.90-5.38Q10.90-6.96 11.51-8.20Q12.13-9.43 13.28-10.10Q14.43-10.76 15.99-10.76L15.99-10.76Q18.36-10.76 19.73-9.29Q21.09-7.82 21.09-5.29L21.09-5.29L21.09-5.18Q21.09-2.71 19.72-1.25Q18.35 0.20 16.01 0.20L16.01 0.20Q13.75 0.20 12.38-1.16Q11.02-2.51 10.91-4.82L10.91-4.82ZM14.20-5.77L14.19-5.18Q14.19-3.71 14.65-3.03Q15.11-2.34 16.01-2.34L16.01-2.34Q17.76-2.34 17.80-5.05L17.80-5.05L17.80-5.38Q17.80-8.22 15.99-8.22L15.99-8.22Q14.34-8.22 14.20-5.77L14.20-5.77ZM26.02-15L26.02 0L22.71 0L22.71-15L26.02-15ZM37.29 0L33.99 0Q33.82-0.32 33.68-0.95L33.68-0.95Q32.77 0.20 31.14 0.20L31.14 0.20Q29.65 0.20 28.60-0.71Q27.56-1.61 27.56-2.98L27.56-2.98Q27.56-4.70 28.83-5.58Q30.10-6.46 32.52-6.46L32.52-6.46L33.54-6.46L33.54-7.01Q33.54-8.47 32.28-8.47L32.28-8.47Q31.10-8.47 31.10-7.31L31.10-7.31L27.81-7.31Q27.81-8.85 29.12-9.80Q30.42-10.76 32.44-10.76Q34.46-10.76 35.63-9.78Q36.81-8.79 36.84-7.07L36.84-7.07L36.84-2.39Q36.86-0.94 37.29-0.17L37.29-0.17L37.29 0ZM31.93-2.15L31.93-2.15Q32.55-2.15 32.95-2.41Q33.36-2.68 33.54-3.01L33.54-3.01L33.54-4.70L32.58-4.70Q30.86-4.70 30.86-3.15L30.86-3.15Q30.86-2.71 31.16-2.43Q31.46-2.15 31.93-2.15ZM45.21 0L42.90-3.94L41.97-3.01L41.97 0L38.68 0L38.68-15.01L41.97-15.01L41.97-7.04L42.30-7.48L44.79-10.57L48.73-10.57L45.03-6.22L48.97 0L45.21 0ZM53.07-10.57L53.07 0L49.77 0L49.77-10.57L53.07-10.57ZM49.57-13.29L49.57-13.29Q49.57-13.99 50.08-14.44Q50.59-14.89 51.40-14.89Q52.21-14.89 52.71-14.44Q53.22-13.99 53.22-13.29Q53.22-12.59 52.71-12.14Q52.21-11.69 51.40-11.69Q50.59-11.69 50.08-12.14Q49.57-12.59 49.57-13.29ZM55.63-13.19L58.93-13.19L58.93-10.57L60.66-10.57L60.66-8.28L58.93-8.28L58.93-3.45Q58.93-2.85 59.14-2.62Q59.36-2.38 59.99-2.38L59.99-2.38Q60.48-2.38 60.81-2.44L60.81-2.44L60.81-0.09Q59.92 0.20 58.96 0.20L58.96 0.20Q57.26 0.20 56.45-0.61Q55.63-1.41 55.63-3.04L55.63-3.04L55.63-8.28L54.29-8.28L54.29-10.57L55.63-10.57L55.63-13.19Z"></path></g></g></svg><style>@media (prefers-color-scheme: light) { :root { filter: none; } }
@media (prefers-color-scheme: dark) { :root { filter: none; } }
</style></svg>